<?xml version="1.0" standalone="no"?>
<!DOCTYPE svg PUBLIC "-//W3C//DTD SVG 20010904//EN"
 "http://www.w3.org/TR/2001/REC-SVG-20010904/DTD/svg10.dtd">
<svg version="1.0" xmlns="http://www.w3.org/2000/svg"
 width="1024.000000pt" height="1024.000000pt" viewBox="0 0 1024.000000 1024.000000"
 preserveAspectRatio="xMidYMid meet">

<g transform="translate(0.000000,1024.000000) scale(0.100000,-0.100000)"
fill="#000000" stroke="none">
<path d="M0 5120 l0 -5120 5120 0 5120 0 0 5120 0 5120 -5120 0 -5120 0 0
-5120z m3174 995 c93 -28 201 -108 246 -180 l20 -32 -37 -67 c-33 -60 -56 -80
-65 -58 -1 5 -30 27 -63 49 -137 93 -252 82 -340 -34 -51 -67 -75 -154 -75
-273 0 -55 4 -101 9 -104 5 -4 14 17 20 46 14 64 42 128 76 172 35 46 105 80
148 72 31 -6 127 -71 134 -91 2 -5 -17 -23 -41 -38 -108 -68 -167 -203 -151
-345 12 -109 35 -165 106 -258 l49 -66 -11 -61 c-6 -34 -13 -68 -15 -75 -5
-17 -101 57 -174 134 -109 115 -203 274 -239 404 -7 25 -17 59 -22 76 -5 17
-9 44 -9 62 0 17 -4 34 -10 37 -14 8 -13 173 1 232 44 187 90 270 195 350 41
31 125 62 169 63 17 0 52 -7 79 -15z m4082 -19 c66 -30 154 -117 188 -184 50
-102 61 -157 61 -317 -1 -114 -5 -164 -19 -210 -10 -33 -21 -74 -25 -90 -12
-48 -85 -198 -128 -262 -65 -98 -234 -263 -269 -263 -6 0 -16 34 -23 76 l-14
75 30 32 c85 91 123 190 123 320 0 110 -10 150 -53 213 -29 44 -95 103 -129
117 -21 9 66 83 112 95 58 15 103 -2 153 -58 42 -46 87 -150 87 -197 0 -26 15
-31 24 -7 3 9 6 50 6 92 0 124 -51 257 -120 315 -87 74 -217 55 -339 -50 -22
-18 -41 -33 -43 -33 -2 0 -21 34 -42 75 l-39 74 25 33 c127 167 284 223 434
154z m-2802 -272 c160 -41 366 -119 541 -206 44 -22 88 -47 98 -56 16 -14 21
-14 55 7 33 20 175 90 257 126 188 84 439 155 547 155 74 0 185 -28 252 -62
88 -46 192 -155 238 -248 55 -111 90 -263 87 -372 -5 -173 -48 -317 -135 -456
-56 -89 -204 -232 -330 -320 l-31 -22 -74 52 c-75 52 -175 133 -216 174 -30
30 -30 48 0 40 40 -12 125 -19 144 -12 13 6 0 14 -54 35 -104 41 -193 111
-249 196 -21 32 -18 31 54 -17 65 -45 119 -59 203 -56 85 3 98 20 23 29 -53 7
-144 45 -144 61 0 5 21 6 48 2 56 -7 159 10 224 38 27 11 69 43 99 75 28 30
54 52 57 48 11 -11 -31 -121 -64 -167 -37 -52 -37 -55 4 -34 91 48 171 196
159 297 -6 48 -35 119 -49 119 -4 0 -8 5 -8 10 0 29 114 -2 157 -42 55 -52 27
36 -33 101 -90 100 -214 113 -391 43 -28 -12 -110 -50 -181 -86 -220 -110
-311 -130 -393 -85 -65 36 -94 94 -94 187 1 39 -3 72 -8 72 -17 0 -50 -97 -55
-162 -5 -70 12 -133 44 -165 8 -9 13 -18 10 -20 -11 -11 -54 13 -88 50 l-37
40 -40 -36 c-42 -38 -80 -61 -87 -54 -3 2 7 28 22 57 23 45 26 62 22 128 -2
53 -10 90 -24 116 -25 49 -49 61 -37 19 4 -15 7 -52 6 -80 -3 -128 -115 -201
-251 -166 -31 8 -146 57 -255 109 -227 110 -305 132 -400 115 -68 -12 -113
-37 -158 -88 -51 -59 -78 -141 -32 -101 36 32 163 82 163 65 0 -2 -12 -26 -27
-53 -24 -41 -28 -61 -28 -124 0 -62 5 -84 28 -130 33 -63 54 -89 109 -126 49
-35 59 -25 20 21 -31 35 -62 117 -62 164 0 24 1 24 25 -10 37 -50 99 -95 163
-120 44 -17 79 -22 156 -22 93 -1 98 -2 76 -16 -42 -29 -104 -50 -147 -50 -51
-1 -65 -17 -22 -26 89 -20 190 3 269 59 73 53 64 20 -17 -62 -67 -67 -190
-142 -234 -142 -10 0 -21 -5 -25 -12 -5 -8 12 -10 67 -5 41 3 84 9 97 13 42
12 22 -20 -50 -81 -39 -33 -76 -64 -82 -70 -19 -17 -89 -70 -123 -93 l-32 -23
-71 47 c-131 86 -291 260 -343 374 -88 192 -109 397 -59 590 62 243 198 391
422 459 46 14 216 5 294 -15z m740 -803 c33 -12 81 -21 108 -21 26 0 48 -4 48
-8 0 -5 -27 -24 -61 -43 -33 -18 -65 -42 -71 -53 -9 -16 -8 -18 8 -11 11 4 44
15 75 23 47 13 63 14 98 3 40 -12 44 -16 96 -123 30 -61 55 -112 55 -113 0 -1
-31 0 -70 3 -61 4 -76 1 -126 -23 -65 -32 -129 -85 -150 -126 -22 -43 -18 -43
39 2 141 112 265 109 386 -11 80 -79 114 -175 92 -258 -17 -60 -98 -142 -191
-192 -66 -35 -71 -40 -44 -40 61 0 215 61 263 104 l23 21 69 -74 c73 -79 143
-177 183 -257 112 -224 119 -533 13 -581 -17 -8 -32 -6 -68 11 -78 38 -229 97
-337 132 -203 66 -503 100 -663 75 -35 -5 -100 -15 -144 -21 -44 -7 -103 -18
-130 -25 -64 -16 -304 -106 -389 -145 -79 -37 -100 -37 -131 -4 -37 40 -50 90
-49 189 1 232 112 472 311 673 23 23 23 23 51 4 72 -51 226 -109 268 -100 13
3 -3 15 -52 41 -75 40 -146 103 -171 151 -19 36 -20 116 -4 174 15 55 84 139
145 177 38 23 63 30 116 33 76 5 131 -17 209 -82 24 -20 44 -36 46 -36 2 0 1
9 -2 21 -9 31 -99 117 -146 139 -68 31 -118 40 -162 30 -22 -5 -42 -7 -44 -4
-3 2 18 48 45 102 62 119 95 147 166 138 26 -3 61 -12 78 -21 18 -9 35 -13 38
-10 9 9 -52 60 -95 80 -18 9 -31 20 -29 24 3 5 32 11 64 13 32 3 79 15 103 26
48 23 47 23 133 -7z m226 -1705 c216 -40 472 -146 544 -226 61 -68 58 -92 -29
-215 -147 -206 -388 -362 -668 -432 l-142 -36 -100 22 c-113 26 -240 68 -313
105 -154 78 -326 224 -417 354 -61 88 -70 115 -55 152 48 116 357 249 675 290
93 13 409 3 505 -14z m4289 -2582 c27 -63 90 -123 156 -151 25 -10 45 -20 45
-23 0 -3 -25 -16 -56 -29 -63 -27 -123 -90 -151 -156 -10 -25 -20 -45 -23 -45
-3 0 -16 25 -29 56 -27 63 -90 123 -156 151 -25 10 -45 20 -45 23 0 3 25 16
56 29 63 27 123 90 151 156 10 25 20 45 23 45 3 0 16 -25 29 -56z"/>
<path d="M4752 4434 c-117 -58 -135 -200 -34 -269 47 -32 58 -22 26 21 -15 19
-24 37 -21 41 4 3 35 -6 69 -20 35 -14 80 -31 101 -38 54 -19 104 -63 139
-125 16 -30 32 -54 35 -54 9 0 -9 143 -23 182 -21 61 -56 105 -125 155 -35 27
-72 63 -81 82 -26 52 -30 53 -86 25z"/>
<path d="M5407 4416 c-9 -21 -48 -59 -96 -95 -98 -75 -127 -127 -137 -250 -4
-44 -4 -81 -1 -81 3 0 15 19 25 43 29 64 81 106 184 149 51 22 101 42 111 45
23 7 22 -15 -3 -47 -41 -52 -16 -54 40 -4 71 64 75 149 11 217 -59 64 -110 73
-134 23z"/>
</g>
</svg>
